<?xml version="1.0" encoding="UTF-8" standalone="no"?>
<!DOCTYPE svg PUBLIC "-//W3C//DTD SVG 1.1//EN"
 "http://www.w3.org/Graphics/SVG/1.1/DTD/svg11.dtd">
<!-- Generated by graphviz version 2.40.1 (20161225.0304)
 -->
<!-- Title: dependencies Pages: 1 -->
<svg width="1152pt" height="284pt"
 viewBox="0.00 0.00 1152.00 284.00" xmlns="http://www.w3.org/2000/svg" xmlns:xlink="http://www.w3.org/1999/xlink">
<g id="graph0" class="graph" transform="scale(1 1) rotate(0) translate(4 280)">
<title>dependencies</title>
<polygon fill="#ffffff" stroke="transparent" points="-4,4 -4,-280 1148,-280 1148,4 -4,4"/>
<text text-anchor="start" x="551.0091" y="-42.4" font-family="sans-serif" font-weight="bold" font-size="14.00" fill="#000000">Legend</text>
<polygon fill="#ffffb3" stroke="transparent" points="338,-10 338,-30 358,-30 358,-10 338,-10"/>
<text text-anchor="start" x="361.629" y="-15.4" font-family="sans-serif" font-size="14.00" fill="#000000"> &#160;Declarations</text>
<polygon fill="#8dd3c7" stroke="transparent" points="451,-10 451,-30 471,-30 471,-10 451,-10"/>
<text text-anchor="start" x="474.7251" y="-15.4" font-family="sans-serif" font-size="14.00" fill="#000000"> &#160;Module</text>
<polygon fill="#80b1d3" stroke="transparent" points="537,-10 537,-30 557,-30 557,-10 537,-10"/>
<text text-anchor="start" x="560.7812" y="-15.4" font-family="sans-serif" font-size="14.00" fill="#000000"> &#160;Bootstrap</text>
<polygon fill="#fdb462" stroke="transparent" points="634,-10 634,-30 654,-30 654,-10 634,-10"/>
<text text-anchor="start" x="657.6732" y="-15.4" font-family="sans-serif" font-size="14.00" fill="#000000"> &#160;Providers</text>
<polygon fill="#fb8072" stroke="transparent" points="730,-10 730,-30 750,-30 750,-10 730,-10"/>
<text text-anchor="start" x="753.7258" y="-15.4" font-family="sans-serif" font-size="14.00" fill="#000000"> &#160;Exports</text>
<g id="clust1" class="cluster">
<title>cluster_AppModule</title>
<polygon fill="none" stroke="#000000" stroke-dasharray="1,5" points="8,-70 8,-268 1136,-268 1136,-70 8,-70"/>
</g>
<g id="clust2" class="cluster">
<title>cluster_AppModule_declarations</title>
<polygon fill="none" stroke="#000000" points="182,-78 182,-130 1128,-130 1128,-78 182,-78"/>
</g>
<g id="clust9" class="cluster">
<title>cluster_AppModule_imports</title>
<polygon fill="none" stroke="#000000" points="16,-78 16,-130 174,-130 174,-78 16,-78"/>
</g>
<g id="clust11" class="cluster">
<title>cluster_AppModule_bootstrap</title>
<polygon fill="none" stroke="#000000" points="535,-208 535,-260 659,-260 659,-208 535,-208"/>
</g>
<!-- AppComponent -->
<g id="node1" class="node">
<title>AppComponent</title>
<polygon fill="#ffffb3" stroke="#000000" points="1119.9399,-122 1014.0601,-122 1014.0601,-86 1119.9399,-86 1119.9399,-122"/>
<text text-anchor="middle" x="1067" y="-99.8" font-family="Times,serif" font-size="14.00" fill="#000000">AppComponent</text>
</g>
<!-- AppModule -->
<g id="node7" class="node">
<title>AppModule</title>
<polygon fill="#8dd3c7" stroke="#000000" points="638.6571,-187 635.6571,-191 614.6571,-191 611.6571,-187 555.3429,-187 555.3429,-151 638.6571,-151 638.6571,-187"/>
<text text-anchor="middle" x="597" y="-164.8" font-family="Times,serif" font-size="14.00" fill="#000000">AppModule</text>
</g>
<!-- AppComponent&#45;&gt;AppModule -->
<g id="edge1" class="edge">
<title>AppComponent&#45;&gt;AppModule</title>
<path fill="none" stroke="#000000" d="M1067,-122.2921C1067,-144.2057 1067,-178 1067,-178 1067,-178 648.7094,-178 648.7094,-178"/>
<polygon fill="#000000" stroke="#000000" points="648.7094,-174.5001 638.7094,-178 648.7093,-181.5001 648.7094,-174.5001"/>
</g>
<!-- BatteryLevelComponent -->
<g id="node2" class="node">
<title>BatteryLevelComponent</title>
<polygon fill="#ffffb3" stroke="#000000" points="996.413,-122 841.587,-122 841.587,-86 996.413,-86 996.413,-122"/>
<text text-anchor="middle" x="919" y="-99.8" font-family="Times,serif" font-size="14.00" fill="#000000">BatteryLevelComponent</text>
</g>
<!-- BatteryLevelComponent&#45;&gt;AppModule -->
<g id="edge2" class="edge">
<title>BatteryLevelComponent&#45;&gt;AppModule</title>
<path fill="none" stroke="#000000" d="M919,-122.1061C919,-141.3391 919,-169 919,-169 919,-169 648.7658,-169 648.7658,-169"/>
<polygon fill="#000000" stroke="#000000" points="648.7658,-165.5001 638.7658,-169 648.7657,-172.5001 648.7658,-165.5001"/>
</g>
<!-- DashboardComponent -->
<g id="node3" class="node">
<title>DashboardComponent</title>
<polygon fill="#ffffb3" stroke="#000000" points="823.9734,-122 682.0266,-122 682.0266,-86 823.9734,-86 823.9734,-122"/>
<text text-anchor="middle" x="753" y="-99.8" font-family="Times,serif" font-size="14.00" fill="#000000">DashboardComponent</text>
</g>
<!-- DashboardComponent&#45;&gt;AppModule -->
<g id="edge3" class="edge">
<title>DashboardComponent&#45;&gt;AppModule</title>
<path fill="none" stroke="#000000" d="M753,-122.027C753,-138.3976 753,-160 753,-160 753,-160 648.8051,-160 648.8051,-160"/>
<polygon fill="#000000" stroke="#000000" points="648.8052,-156.5001 638.8051,-160 648.8051,-163.5001 648.8052,-156.5001"/>
</g>
<!-- HumidityComponent -->
<g id="node4" class="node">
<title>HumidityComponent</title>
<polygon fill="#ffffb3" stroke="#000000" points="664.5014,-122 529.4986,-122 529.4986,-86 664.5014,-86 664.5014,-122"/>
<text text-anchor="middle" x="597" y="-99.8" font-family="Times,serif" font-size="14.00" fill="#000000">HumidityComponent</text>
</g>
<!-- HumidityComponent&#45;&gt;AppModule -->
<g id="edge4" class="edge">
<title>HumidityComponent&#45;&gt;AppModule</title>
<path fill="none" stroke="#000000" d="M597,-122.1061C597,-122.1061 597,-140.991 597,-140.991"/>
<polygon fill="#000000" stroke="#000000" points="593.5001,-140.9909 597,-150.991 600.5001,-140.991 593.5001,-140.9909"/>
</g>
<!-- StepCounterComponent -->
<g id="node5" class="node">
<title>StepCounterComponent</title>
<polygon fill="#ffffb3" stroke="#000000" points="511.8229,-122 360.1771,-122 360.1771,-86 511.8229,-86 511.8229,-122"/>
<text text-anchor="middle" x="436" y="-99.8" font-family="Times,serif" font-size="14.00" fill="#000000">StepCounterComponent</text>
</g>
<!-- StepCounterComponent&#45;&gt;AppModule -->
<g id="edge5" class="edge">
<title>StepCounterComponent&#45;&gt;AppModule</title>
<path fill="none" stroke="#000000" d="M436,-122.027C436,-138.3976 436,-160 436,-160 436,-160 545.1194,-160 545.1194,-160"/>
<polygon fill="#000000" stroke="#000000" points="545.1195,-163.5001 555.1194,-160 545.1194,-156.5001 545.1195,-163.5001"/>
</g>
<!-- TemperatureComponent -->
<g id="node6" class="node">
<title>TemperatureComponent</title>
<polygon fill="#ffffb3" stroke="#000000" points="342.3459,-122 189.6541,-122 189.6541,-86 342.3459,-86 342.3459,-122"/>
<text text-anchor="middle" x="266" y="-99.8" font-family="Times,serif" font-size="14.00" fill="#000000">TemperatureComponent</text>
</g>
<!-- TemperatureComponent&#45;&gt;AppModule -->
<g id="edge6" class="edge">
<title>TemperatureComponent&#45;&gt;AppModule</title>
<path fill="none" stroke="#000000" d="M266,-122.1061C266,-141.3391 266,-169 266,-169 266,-169 545.0786,-169 545.0786,-169"/>
<polygon fill="#000000" stroke="#000000" points="545.0787,-172.5001 555.0786,-169 545.0786,-165.5001 545.0787,-172.5001"/>
</g>
<!-- AppComponent  -->
<g id="node9" class="node">
<title>AppComponent </title>
<polygon fill="#80b1d3" stroke="#000000" points="651.439,-252 542.561,-252 542.561,-216 651.439,-216 651.439,-252"/>
<text text-anchor="middle" x="597" y="-229.8" font-family="Times,serif" font-size="14.00" fill="#000000">AppComponent </text>
</g>
<!-- AppModule&#45;&gt;AppComponent  -->
<g id="edge8" class="edge">
<title>AppModule&#45;&gt;AppComponent </title>
<path fill="none" stroke="#000000" stroke-dasharray="1,5" d="M597,-187.1061C597,-187.1061 597,-205.991 597,-205.991"/>
<polygon fill="#000000" stroke="#000000" points="593.5001,-205.9909 597,-215.991 600.5001,-205.991 593.5001,-205.9909"/>
</g>
<!-- WebBluetoothModule -->
<g id="node8" class="node">
<title>WebBluetoothModule</title>
<polygon fill="#8dd3c7" stroke="#000000" points="165.7021,-122 162.7021,-126 141.7021,-126 138.7021,-122 24.2979,-122 24.2979,-86 165.7021,-86 165.7021,-122"/>
<text text-anchor="middle" x="95" y="-99.8" font-family="Times,serif" font-size="14.00" fill="#000000">WebBluetoothModule</text>
</g>
<!-- WebBluetoothModule&#45;&gt;AppModule -->
<g id="edge7" class="edge">
<title>WebBluetoothModule&#45;&gt;AppModule</title>
<path fill="none" stroke="#000000" d="M95,-122.2921C95,-144.2057 95,-178 95,-178 95,-178 545.0632,-178 545.0632,-178"/>
<polygon fill="#000000" stroke="#000000" points="545.0632,-181.5001 555.0632,-178 545.0632,-174.5001 545.0632,-181.5001"/>
</g>
</g>
</svg>
