<?xml version="1.0" encoding="UTF-8" standalone="no"?>
<!DOCTYPE svg PUBLIC "-//W3C//DTD SVG 1.1//EN"
 "http://www.w3.org/Graphics/SVG/1.1/DTD/svg11.dtd">
<!-- Generated by graphviz version 5.0.0 (20220707.1540)
 -->
<!-- Title: dependencies Pages: 1 -->
<svg width="1152pt" height="247pt"
 viewBox="0.00 0.00 1152.00 246.80" xmlns="http://www.w3.org/2000/svg" xmlns:xlink="http://www.w3.org/1999/xlink">
<g id="graph0" class="graph" transform="scale(1 1) rotate(0) translate(4 242.8)">
<title>dependencies</title>
<polygon fill="white" stroke="transparent" points="-4,4 -4,-242.8 1148,-242.8 1148,4 -4,4"/>
<text text-anchor="middle" x="572" y="-8.2" font-family="sans-serif" font-size="14.00">dependencies</text>
<g id="clust1" class="cluster">
<title>cluster_AppModule</title>
<polygon fill="none" stroke="black" stroke-dasharray="1,5" points="8,-32.8 8,-230.8 1136,-230.8 1136,-32.8 8,-32.8"/>
</g>
<g id="clust2" class="cluster">
<title>cluster_AppModule_declarations</title>
<polygon fill="none" stroke="black" points="182,-40.8 182,-92.8 1128,-92.8 1128,-40.8 182,-40.8"/>
</g>
<g id="clust9" class="cluster">
<title>cluster_AppModule_imports</title>
<polygon fill="none" stroke="black" points="16,-40.8 16,-92.8 174,-92.8 174,-40.8 16,-40.8"/>
</g>
<g id="clust11" class="cluster">
<title>cluster_AppModule_bootstrap</title>
<polygon fill="none" stroke="black" points="535,-170.8 535,-222.8 659,-222.8 659,-170.8 535,-170.8"/>
</g>
<!-- AppComponent -->
<g id="node1" class="node">
<title>AppComponent</title>
<polygon fill="#ffffb3" stroke="black" points="1119.94,-84.8 1014.06,-84.8 1014.06,-48.8 1119.94,-48.8 1119.94,-84.8"/>
<text text-anchor="middle" x="1067" y="-62.6" font-family="Times,serif" font-size="14.00">AppComponent</text>
</g>
<!-- AppModule -->
<g id="node7" class="node">
<title>AppModule</title>
<polygon fill="#8dd3c7" stroke="black" points="638.66,-149.8 635.66,-153.8 614.66,-153.8 611.66,-149.8 555.34,-149.8 555.34,-113.8 638.66,-113.8 638.66,-149.8"/>
<text text-anchor="middle" x="597" y="-127.6" font-family="Times,serif" font-size="14.00">AppModule</text>
</g>
<!-- AppComponent&#45;&gt;AppModule -->
<g id="edge1" class="edge">
<title>AppComponent&#45;&gt;AppModule</title>
<path fill="none" stroke="black" d="M1067,-85.09C1067,-107.01 1067,-140.8 1067,-140.8 1067,-140.8 648.71,-140.8 648.71,-140.8"/>
<polygon fill="black" stroke="black" points="648.71,-137.3 638.71,-140.8 648.71,-144.3 648.71,-137.3"/>
</g>
<!-- BatteryLevelComponent -->
<g id="node2" class="node">
<title>BatteryLevelComponent</title>
<polygon fill="#ffffb3" stroke="black" points="996.41,-84.8 841.59,-84.8 841.59,-48.8 996.41,-48.8 996.41,-84.8"/>
<text text-anchor="middle" x="919" y="-62.6" font-family="Times,serif" font-size="14.00">BatteryLevelComponent</text>
</g>
<!-- BatteryLevelComponent&#45;&gt;AppModule -->
<g id="edge2" class="edge">
<title>BatteryLevelComponent&#45;&gt;AppModule</title>
<path fill="none" stroke="black" d="M919,-84.91C919,-104.14 919,-131.8 919,-131.8 919,-131.8 648.77,-131.8 648.77,-131.8"/>
<polygon fill="black" stroke="black" points="648.77,-128.3 638.77,-131.8 648.77,-135.3 648.77,-128.3"/>
</g>
<!-- DashboardComponent -->
<g id="node3" class="node">
<title>DashboardComponent</title>
<polygon fill="#ffffb3" stroke="black" points="823.98,-84.8 682.02,-84.8 682.02,-48.8 823.98,-48.8 823.98,-84.8"/>
<text text-anchor="middle" x="753" y="-62.6" font-family="Times,serif" font-size="14.00">DashboardComponent</text>
</g>
<!-- DashboardComponent&#45;&gt;AppModule -->
<g id="edge3" class="edge">
<title>DashboardComponent&#45;&gt;AppModule</title>
<path fill="none" stroke="black" d="M753,-84.83C753,-101.2 753,-122.8 753,-122.8 753,-122.8 648.81,-122.8 648.81,-122.8"/>
<polygon fill="black" stroke="black" points="648.81,-119.3 638.81,-122.8 648.81,-126.3 648.81,-119.3"/>
</g>
<!-- HumidityComponent -->
<g id="node4" class="node">
<title>HumidityComponent</title>
<polygon fill="#ffffb3" stroke="black" points="664.5,-84.8 529.5,-84.8 529.5,-48.8 664.5,-48.8 664.5,-84.8"/>
<text text-anchor="middle" x="597" y="-62.6" font-family="Times,serif" font-size="14.00">HumidityComponent</text>
</g>
<!-- HumidityComponent&#45;&gt;AppModule -->
<g id="edge4" class="edge">
<title>HumidityComponent&#45;&gt;AppModule</title>
<path fill="none" stroke="black" d="M597,-84.91C597,-84.91 597,-103.79 597,-103.79"/>
<polygon fill="black" stroke="black" points="593.5,-103.79 597,-113.79 600.5,-103.79 593.5,-103.79"/>
</g>
<!-- StepCounterComponent -->
<g id="node5" class="node">
<title>StepCounterComponent</title>
<polygon fill="#ffffb3" stroke="black" points="511.82,-84.8 360.18,-84.8 360.18,-48.8 511.82,-48.8 511.82,-84.8"/>
<text text-anchor="middle" x="436" y="-62.6" font-family="Times,serif" font-size="14.00">StepCounterComponent</text>
</g>
<!-- StepCounterComponent&#45;&gt;AppModule -->
<g id="edge5" class="edge">
<title>StepCounterComponent&#45;&gt;AppModule</title>
<path fill="none" stroke="black" d="M436,-84.83C436,-101.2 436,-122.8 436,-122.8 436,-122.8 545.12,-122.8 545.12,-122.8"/>
<polygon fill="black" stroke="black" points="545.12,-126.3 555.12,-122.8 545.12,-119.3 545.12,-126.3"/>
</g>
<!-- TemperatureComponent -->
<g id="node6" class="node">
<title>TemperatureComponent</title>
<polygon fill="#ffffb3" stroke="black" points="342.34,-84.8 189.66,-84.8 189.66,-48.8 342.34,-48.8 342.34,-84.8"/>
<text text-anchor="middle" x="266" y="-62.6" font-family="Times,serif" font-size="14.00">TemperatureComponent</text>
</g>
<!-- TemperatureComponent&#45;&gt;AppModule -->
<g id="edge6" class="edge">
<title>TemperatureComponent&#45;&gt;AppModule</title>
<path fill="none" stroke="black" d="M266,-84.91C266,-104.14 266,-131.8 266,-131.8 266,-131.8 545.08,-131.8 545.08,-131.8"/>
<polygon fill="black" stroke="black" points="545.08,-135.3 555.08,-131.8 545.08,-128.3 545.08,-135.3"/>
</g>
<!-- AppComponent  -->
<g id="node9" class="node">
<title>AppComponent </title>
<polygon fill="#80b1d3" stroke="black" points="651.44,-214.8 542.56,-214.8 542.56,-178.8 651.44,-178.8 651.44,-214.8"/>
<text text-anchor="middle" x="597" y="-192.6" font-family="Times,serif" font-size="14.00">AppComponent </text>
</g>
<!-- AppModule&#45;&gt;AppComponent  -->
<g id="edge8" class="edge">
<title>AppModule&#45;&gt;AppComponent </title>
<path fill="none" stroke="black" stroke-dasharray="1,5" d="M597,-149.91C597,-149.91 597,-168.79 597,-168.79"/>
<polygon fill="black" stroke="black" points="593.5,-168.79 597,-178.79 600.5,-168.79 593.5,-168.79"/>
</g>
<!-- WebBluetoothModule -->
<g id="node8" class="node">
<title>WebBluetoothModule</title>
<polygon fill="#8dd3c7" stroke="black" points="165.7,-84.8 162.7,-88.8 141.7,-88.8 138.7,-84.8 24.3,-84.8 24.3,-48.8 165.7,-48.8 165.7,-84.8"/>
<text text-anchor="middle" x="95" y="-62.6" font-family="Times,serif" font-size="14.00">WebBluetoothModule</text>
</g>
<!-- WebBluetoothModule&#45;&gt;AppModule -->
<g id="edge7" class="edge">
<title>WebBluetoothModule&#45;&gt;AppModule</title>
<path fill="none" stroke="black" d="M95,-85.09C95,-107.01 95,-140.8 95,-140.8 95,-140.8 545.06,-140.8 545.06,-140.8"/>
<polygon fill="black" stroke="black" points="545.06,-144.3 555.06,-140.8 545.06,-137.3 545.06,-144.3"/>
</g>
</g>
</svg>
