<?xml version="1.0" encoding="UTF-8" standalone="no"?>
<!DOCTYPE svg PUBLIC "-//W3C//DTD SVG 1.1//EN"
 "http://www.w3.org/Graphics/SVG/1.1/DTD/svg11.dtd">
<!-- Generated by graphviz version 5.0.0 (20220707.1540)
 -->
<!-- Title: dependencies Pages: 1 -->
<svg width="1152pt" height="247pt"
 viewBox="0.00 0.00 1152.00 246.80" xmlns="http://www.w3.org/2000/svg" xmlns:xlink="http://www.w3.org/1999/xlink">
<g id="graph0" class="graph" transform="scale(1 1) rotate(0) translate(4 242.8)">
<title>dependencies</title>
<polygon fill="white" stroke="transparent" points="-4,4 -4,-242.8 1148,-242.8 1148,4 -4,4"/>
<text text-anchor="middle" x="572" y="-8.2" font-family="sans-serif" font-size="14.00">dependencies</text>
<g id="clust1" class="cluster">
<title>cluster_AppModule</title>
<polygon fill="none" stroke="black" stroke-dasharray="1,5" points="8,-32.8 8,-230.8 1136,-230.8 1136,-32.8 8,-32.8"/>
</g>
<g id="clust11" class="cluster">
<title>cluster_AppModule_bootstrap</title>
<polygon fill="none" stroke="black" points="525,-170.8 525,-222.8 649,-222.8 649,-170.8 525,-170.8"/>
</g>
<g id="clust9" class="cluster">
<title>cluster_AppModule_imports</title>
<polygon fill="none" stroke="black" points="970,-40.8 970,-92.8 1128,-92.8 1128,-40.8 970,-40.8"/>
</g>
<g id="clust2" class="cluster">
<title>cluster_AppModule_declarations</title>
<polygon fill="none" stroke="black" points="16,-40.8 16,-92.8 962,-92.8 962,-40.8 16,-40.8"/>
</g>
<!-- AppComponent -->
<g id="node1" class="node">
<title>AppComponent</title>
<polygon fill="#ffffb3" stroke="black" points="953.94,-84.8 848.06,-84.8 848.06,-48.8 953.94,-48.8 953.94,-84.8"/>
<text text-anchor="middle" x="901" y="-62.6" font-family="Times,serif" font-size="14.00">AppComponent</text>
</g>
<!-- AppModule -->
<g id="node7" class="node">
<title>AppModule</title>
<polygon fill="#8dd3c7" stroke="black" points="628.66,-149.8 625.66,-153.8 604.66,-153.8 601.66,-149.8 545.34,-149.8 545.34,-113.8 628.66,-113.8 628.66,-149.8"/>
<text text-anchor="middle" x="587" y="-127.6" font-family="Times,serif" font-size="14.00">AppModule</text>
</g>
<!-- AppComponent&#45;&gt;AppModule -->
<g id="edge1" class="edge">
<title>AppComponent&#45;&gt;AppModule</title>
<path fill="none" stroke="black" d="M901,-84.91C901,-104.14 901,-131.8 901,-131.8 901,-131.8 638.7,-131.8 638.7,-131.8"/>
<polygon fill="black" stroke="black" points="638.7,-128.3 628.7,-131.8 638.7,-135.3 638.7,-128.3"/>
</g>
<!-- BatteryLevelComponent -->
<g id="node2" class="node">
<title>BatteryLevelComponent</title>
<polygon fill="#ffffb3" stroke="black" points="830.41,-84.8 675.59,-84.8 675.59,-48.8 830.41,-48.8 830.41,-84.8"/>
<text text-anchor="middle" x="753" y="-62.6" font-family="Times,serif" font-size="14.00">BatteryLevelComponent</text>
</g>
<!-- BatteryLevelComponent&#45;&gt;AppModule -->
<g id="edge2" class="edge">
<title>BatteryLevelComponent&#45;&gt;AppModule</title>
<path fill="none" stroke="black" d="M753,-84.83C753,-101.2 753,-122.8 753,-122.8 753,-122.8 638.89,-122.8 638.89,-122.8"/>
<polygon fill="black" stroke="black" points="638.89,-119.3 628.89,-122.8 638.89,-126.3 638.89,-119.3"/>
</g>
<!-- DashboardComponent -->
<g id="node3" class="node">
<title>DashboardComponent</title>
<polygon fill="#ffffb3" stroke="black" points="657.98,-84.8 516.02,-84.8 516.02,-48.8 657.98,-48.8 657.98,-84.8"/>
<text text-anchor="middle" x="587" y="-62.6" font-family="Times,serif" font-size="14.00">DashboardComponent</text>
</g>
<!-- DashboardComponent&#45;&gt;AppModule -->
<g id="edge3" class="edge">
<title>DashboardComponent&#45;&gt;AppModule</title>
<path fill="none" stroke="black" d="M587,-84.91C587,-84.91 587,-103.79 587,-103.79"/>
<polygon fill="black" stroke="black" points="583.5,-103.79 587,-113.79 590.5,-103.79 583.5,-103.79"/>
</g>
<!-- HumidityComponent -->
<g id="node4" class="node">
<title>HumidityComponent</title>
<polygon fill="#ffffb3" stroke="black" points="498.5,-84.8 363.5,-84.8 363.5,-48.8 498.5,-48.8 498.5,-84.8"/>
<text text-anchor="middle" x="431" y="-62.6" font-family="Times,serif" font-size="14.00">HumidityComponent</text>
</g>
<!-- HumidityComponent&#45;&gt;AppModule -->
<g id="edge4" class="edge">
<title>HumidityComponent&#45;&gt;AppModule</title>
<path fill="none" stroke="black" d="M431,-84.83C431,-101.2 431,-122.8 431,-122.8 431,-122.8 535.19,-122.8 535.19,-122.8"/>
<polygon fill="black" stroke="black" points="535.19,-126.3 545.19,-122.8 535.19,-119.3 535.19,-126.3"/>
</g>
<!-- StepCounterComponent -->
<g id="node5" class="node">
<title>StepCounterComponent</title>
<polygon fill="#ffffb3" stroke="black" points="345.82,-84.8 194.18,-84.8 194.18,-48.8 345.82,-48.8 345.82,-84.8"/>
<text text-anchor="middle" x="270" y="-62.6" font-family="Times,serif" font-size="14.00">StepCounterComponent</text>
</g>
<!-- StepCounterComponent&#45;&gt;AppModule -->
<g id="edge5" class="edge">
<title>StepCounterComponent&#45;&gt;AppModule</title>
<path fill="none" stroke="black" d="M270,-84.91C270,-104.14 270,-131.8 270,-131.8 270,-131.8 535.23,-131.8 535.23,-131.8"/>
<polygon fill="black" stroke="black" points="535.23,-135.3 545.23,-131.8 535.23,-128.3 535.23,-135.3"/>
</g>
<!-- TemperatureComponent -->
<g id="node6" class="node">
<title>TemperatureComponent</title>
<polygon fill="#ffffb3" stroke="black" points="176.34,-84.8 23.66,-84.8 23.66,-48.8 176.34,-48.8 176.34,-84.8"/>
<text text-anchor="middle" x="100" y="-62.6" font-family="Times,serif" font-size="14.00">TemperatureComponent</text>
</g>
<!-- TemperatureComponent&#45;&gt;AppModule -->
<g id="edge6" class="edge">
<title>TemperatureComponent&#45;&gt;AppModule</title>
<path fill="none" stroke="black" d="M100,-85.09C100,-107.01 100,-140.8 100,-140.8 100,-140.8 535.06,-140.8 535.06,-140.8"/>
<polygon fill="black" stroke="black" points="535.06,-144.3 545.06,-140.8 535.06,-137.3 535.06,-144.3"/>
</g>
<!-- AppComponent  -->
<g id="node9" class="node">
<title>AppComponent </title>
<polygon fill="#80b1d3" stroke="black" points="641.44,-214.8 532.56,-214.8 532.56,-178.8 641.44,-178.8 641.44,-214.8"/>
<text text-anchor="middle" x="587" y="-192.6" font-family="Times,serif" font-size="14.00">AppComponent </text>
</g>
<!-- AppModule&#45;&gt;AppComponent  -->
<g id="edge8" class="edge">
<title>AppModule&#45;&gt;AppComponent </title>
<path fill="none" stroke="black" stroke-dasharray="1,5" d="M587,-149.91C587,-149.91 587,-168.79 587,-168.79"/>
<polygon fill="black" stroke="black" points="583.5,-168.79 587,-178.79 590.5,-168.79 583.5,-168.79"/>
</g>
<!-- WebBluetoothModule -->
<g id="node8" class="node">
<title>WebBluetoothModule</title>
<polygon fill="#8dd3c7" stroke="black" points="1119.7,-84.8 1116.7,-88.8 1095.7,-88.8 1092.7,-84.8 978.3,-84.8 978.3,-48.8 1119.7,-48.8 1119.7,-84.8"/>
<text text-anchor="middle" x="1049" y="-62.6" font-family="Times,serif" font-size="14.00">WebBluetoothModule</text>
</g>
<!-- WebBluetoothModule&#45;&gt;AppModule -->
<g id="edge7" class="edge">
<title>WebBluetoothModule&#45;&gt;AppModule</title>
<path fill="none" stroke="black" d="M1049,-85.09C1049,-107.01 1049,-140.8 1049,-140.8 1049,-140.8 638.81,-140.8 638.81,-140.8"/>
<polygon fill="black" stroke="black" points="638.81,-137.3 628.81,-140.8 638.81,-144.3 638.81,-137.3"/>
</g>
</g>
</svg>
