<?xml version="1.0" encoding="UTF-8" standalone="no"?>
<!DOCTYPE svg PUBLIC "-//W3C//DTD SVG 1.1//EN"
 "http://www.w3.org/Graphics/SVG/1.1/DTD/svg11.dtd">
<!-- Generated by graphviz version 2.40.1 (20161225.0304)
 -->
<!-- Title: dependencies Pages: 1 -->
<svg width="1340pt" height="284pt"
 viewBox="0.00 0.00 1340.00 284.00" xmlns="http://www.w3.org/2000/svg" xmlns:xlink="http://www.w3.org/1999/xlink">
<g id="graph0" class="graph" transform="scale(1 1) rotate(0) translate(4 280)">
<title>dependencies</title>
<polygon fill="#ffffff" stroke="transparent" points="-4,4 -4,-280 1336,-280 1336,4 -4,4"/>
<text text-anchor="start" x="645.0091" y="-42.4" font-family="sans-serif" font-weight="bold" font-size="14.00" fill="#000000">Legend</text>
<polygon fill="#ffffb3" stroke="transparent" points="432,-10 432,-30 452,-30 452,-10 432,-10"/>
<text text-anchor="start" x="455.629" y="-15.4" font-family="sans-serif" font-size="14.00" fill="#000000"> &#160;Declarations</text>
<polygon fill="#8dd3c7" stroke="transparent" points="545,-10 545,-30 565,-30 565,-10 545,-10"/>
<text text-anchor="start" x="568.7251" y="-15.4" font-family="sans-serif" font-size="14.00" fill="#000000"> &#160;Module</text>
<polygon fill="#80b1d3" stroke="transparent" points="631,-10 631,-30 651,-30 651,-10 631,-10"/>
<text text-anchor="start" x="654.7812" y="-15.4" font-family="sans-serif" font-size="14.00" fill="#000000"> &#160;Bootstrap</text>
<polygon fill="#fdb462" stroke="transparent" points="728,-10 728,-30 748,-30 748,-10 728,-10"/>
<text text-anchor="start" x="751.6732" y="-15.4" font-family="sans-serif" font-size="14.00" fill="#000000"> &#160;Providers</text>
<polygon fill="#fb8072" stroke="transparent" points="824,-10 824,-30 844,-30 844,-10 824,-10"/>
<text text-anchor="start" x="847.7258" y="-15.4" font-family="sans-serif" font-size="14.00" fill="#000000"> &#160;Exports</text>
<g id="clust1" class="cluster">
<title>cluster_AppModule</title>
<polygon fill="none" stroke="#000000" stroke-dasharray="1,5" points="8,-70 8,-268 1324,-268 1324,-70 8,-70"/>
</g>
<g id="clust2" class="cluster">
<title>cluster_AppModule_declarations</title>
<polygon fill="none" stroke="#000000" points="370,-78 370,-130 1316,-130 1316,-78 370,-78"/>
</g>
<g id="clust9" class="cluster">
<title>cluster_AppModule_imports</title>
<polygon fill="none" stroke="#000000" points="204,-78 204,-130 362,-130 362,-78 204,-78"/>
</g>
<g id="clust11" class="cluster">
<title>cluster_AppModule_bootstrap</title>
<polygon fill="none" stroke="#000000" points="642,-208 642,-260 766,-260 766,-208 642,-208"/>
</g>
<g id="clust12" class="cluster">
<title>cluster_AppModule_providers</title>
<polygon fill="none" stroke="#000000" points="16,-78 16,-130 196,-130 196,-78 16,-78"/>
</g>
<!-- AppComponent -->
<g id="node1" class="node">
<title>AppComponent</title>
<polygon fill="#ffffb3" stroke="#000000" points="1307.9399,-122 1202.0601,-122 1202.0601,-86 1307.9399,-86 1307.9399,-122"/>
<text text-anchor="middle" x="1255" y="-99.8" font-family="Times,serif" font-size="14.00" fill="#000000">AppComponent</text>
</g>
<!-- AppModule -->
<g id="node7" class="node">
<title>AppModule</title>
<polygon fill="#8dd3c7" stroke="#000000" points="745.6571,-187 742.6571,-191 721.6571,-191 718.6571,-187 662.3429,-187 662.3429,-151 745.6571,-151 745.6571,-187"/>
<text text-anchor="middle" x="704" y="-164.8" font-family="Times,serif" font-size="14.00" fill="#000000">AppModule</text>
</g>
<!-- AppComponent&#45;&gt;AppModule -->
<g id="edge1" class="edge">
<title>AppComponent&#45;&gt;AppModule</title>
<path fill="none" stroke="#000000" d="M1255,-122.2921C1255,-144.2057 1255,-178 1255,-178 1255,-178 755.8668,-178 755.8668,-178"/>
<polygon fill="#000000" stroke="#000000" points="755.8668,-174.5001 745.8668,-178 755.8668,-181.5001 755.8668,-174.5001"/>
</g>
<!-- BatteryLevelComponent -->
<g id="node2" class="node">
<title>BatteryLevelComponent</title>
<polygon fill="#ffffb3" stroke="#000000" points="1184.413,-122 1029.587,-122 1029.587,-86 1184.413,-86 1184.413,-122"/>
<text text-anchor="middle" x="1107" y="-99.8" font-family="Times,serif" font-size="14.00" fill="#000000">BatteryLevelComponent</text>
</g>
<!-- BatteryLevelComponent&#45;&gt;AppModule -->
<g id="edge2" class="edge">
<title>BatteryLevelComponent&#45;&gt;AppModule</title>
<path fill="none" stroke="#000000" d="M1107,-122.1061C1107,-141.3391 1107,-169 1107,-169 1107,-169 755.9876,-169 755.9876,-169"/>
<polygon fill="#000000" stroke="#000000" points="755.9876,-165.5001 745.9876,-169 755.9876,-172.5001 755.9876,-165.5001"/>
</g>
<!-- DashboardComponent -->
<g id="node3" class="node">
<title>DashboardComponent</title>
<polygon fill="#ffffb3" stroke="#000000" points="1011.9734,-122 870.0266,-122 870.0266,-86 1011.9734,-86 1011.9734,-122"/>
<text text-anchor="middle" x="941" y="-99.8" font-family="Times,serif" font-size="14.00" fill="#000000">DashboardComponent</text>
</g>
<!-- DashboardComponent&#45;&gt;AppModule -->
<g id="edge3" class="edge">
<title>DashboardComponent&#45;&gt;AppModule</title>
<path fill="none" stroke="#000000" d="M941,-122.027C941,-138.3976 941,-160 941,-160 941,-160 755.8253,-160 755.8253,-160"/>
<polygon fill="#000000" stroke="#000000" points="755.8253,-156.5001 745.8253,-160 755.8253,-163.5001 755.8253,-156.5001"/>
</g>
<!-- HumidityComponent -->
<g id="node4" class="node">
<title>HumidityComponent</title>
<polygon fill="#ffffb3" stroke="#000000" points="852.5014,-122 717.4986,-122 717.4986,-86 852.5014,-86 852.5014,-122"/>
<text text-anchor="middle" x="785" y="-99.8" font-family="Times,serif" font-size="14.00" fill="#000000">HumidityComponent</text>
</g>
<!-- HumidityComponent&#45;&gt;AppModule -->
<g id="edge4" class="edge">
<title>HumidityComponent&#45;&gt;AppModule</title>
<path fill="none" stroke="#000000" d="M731.6637,-122.1061C731.6637,-122.1061 731.6637,-140.991 731.6637,-140.991"/>
<polygon fill="#000000" stroke="#000000" points="728.1638,-140.9909 731.6637,-150.991 735.1638,-140.991 728.1638,-140.9909"/>
</g>
<!-- StepCounterComponent -->
<g id="node5" class="node">
<title>StepCounterComponent</title>
<polygon fill="#ffffb3" stroke="#000000" points="699.8229,-122 548.1771,-122 548.1771,-86 699.8229,-86 699.8229,-122"/>
<text text-anchor="middle" x="624" y="-99.8" font-family="Times,serif" font-size="14.00" fill="#000000">StepCounterComponent</text>
</g>
<!-- StepCounterComponent&#45;&gt;AppModule -->
<g id="edge5" class="edge">
<title>StepCounterComponent&#45;&gt;AppModule</title>
<path fill="none" stroke="#000000" d="M680.9165,-122.1061C680.9165,-122.1061 680.9165,-140.991 680.9165,-140.991"/>
<polygon fill="#000000" stroke="#000000" points="677.4166,-140.9909 680.9165,-150.991 684.4166,-140.991 677.4166,-140.9909"/>
</g>
<!-- TemperatureComponent -->
<g id="node6" class="node">
<title>TemperatureComponent</title>
<polygon fill="#ffffb3" stroke="#000000" points="530.3459,-122 377.6541,-122 377.6541,-86 530.3459,-86 530.3459,-122"/>
<text text-anchor="middle" x="454" y="-99.8" font-family="Times,serif" font-size="14.00" fill="#000000">TemperatureComponent</text>
</g>
<!-- TemperatureComponent&#45;&gt;AppModule -->
<g id="edge6" class="edge">
<title>TemperatureComponent&#45;&gt;AppModule</title>
<path fill="none" stroke="#000000" d="M454,-122.027C454,-138.3976 454,-160 454,-160 454,-160 652.1556,-160 652.1556,-160"/>
<polygon fill="#000000" stroke="#000000" points="652.1557,-163.5001 662.1556,-160 652.1556,-156.5001 652.1557,-163.5001"/>
</g>
<!-- AppComponent  -->
<g id="node9" class="node">
<title>AppComponent </title>
<polygon fill="#80b1d3" stroke="#000000" points="758.439,-252 649.561,-252 649.561,-216 758.439,-216 758.439,-252"/>
<text text-anchor="middle" x="704" y="-229.8" font-family="Times,serif" font-size="14.00" fill="#000000">AppComponent </text>
</g>
<!-- AppModule&#45;&gt;AppComponent  -->
<g id="edge8" class="edge">
<title>AppModule&#45;&gt;AppComponent </title>
<path fill="none" stroke="#000000" stroke-dasharray="1,5" d="M704,-187.1061C704,-187.1061 704,-205.991 704,-205.991"/>
<polygon fill="#000000" stroke="#000000" points="700.5001,-205.9909 704,-215.991 707.5001,-205.991 700.5001,-205.9909"/>
</g>
<!-- WebBluetoothModule -->
<g id="node8" class="node">
<title>WebBluetoothModule</title>
<polygon fill="#8dd3c7" stroke="#000000" points="353.7021,-122 350.7021,-126 329.7021,-126 326.7021,-122 212.2979,-122 212.2979,-86 353.7021,-86 353.7021,-122"/>
<text text-anchor="middle" x="283" y="-99.8" font-family="Times,serif" font-size="14.00" fill="#000000">WebBluetoothModule</text>
</g>
<!-- WebBluetoothModule&#45;&gt;AppModule -->
<g id="edge7" class="edge">
<title>WebBluetoothModule&#45;&gt;AppModule</title>
<path fill="none" stroke="#000000" d="M283,-122.1061C283,-141.3391 283,-169 283,-169 283,-169 652.0938,-169 652.0938,-169"/>
<polygon fill="#000000" stroke="#000000" points="652.0938,-172.5001 662.0938,-169 652.0937,-165.5001 652.0938,-172.5001"/>
</g>
<!-- DashboardService -->
<g id="node10" class="node">
<title>DashboardService</title>
<ellipse fill="#fdb462" stroke="#000000" cx="106" cy="-104" rx="81.6423" ry="18"/>
<text text-anchor="middle" x="106" y="-99.8" font-family="Times,serif" font-size="14.00" fill="#000000">DashboardService</text>
</g>
<!-- DashboardService&#45;&gt;AppModule -->
<g id="edge9" class="edge">
<title>DashboardService&#45;&gt;AppModule</title>
<path fill="none" stroke="#000000" d="M106,-122.2921C106,-144.2057 106,-178 106,-178 106,-178 651.9498,-178 651.9498,-178"/>
<polygon fill="#000000" stroke="#000000" points="651.9498,-181.5001 661.9498,-178 651.9498,-174.5001 651.9498,-181.5001"/>
</g>
</g>
</svg>
