<?xml version="1.0" encoding="UTF-8" standalone="no"?>
<!DOCTYPE svg PUBLIC "-//W3C//DTD SVG 1.1//EN"
 "http://www.w3.org/Graphics/SVG/1.1/DTD/svg11.dtd">
<!-- Generated by graphviz version 2.38.0 (20140413.2041)
 -->
<!-- Title: dependencies Pages: 1 -->
<svg width="504pt" height="211pt"
 viewBox="0.00 0.00 504.00 211.00" xmlns="http://www.w3.org/2000/svg" xmlns:xlink="http://www.w3.org/1999/xlink">
<g id="graph0" class="graph" transform="scale(1 1) rotate(0) translate(4 207)">
<title>dependencies</title>
<polygon fill="white" stroke="none" points="-4,4 -4,-207 500,-207 500,4 -4,4"/>
<text text-anchor="start" x="227.009" y="-42.4" font-family="sans-serif" font-weight="bold" font-size="14.00">Legend</text>
<polygon fill="#ffffb3" stroke="none" points="14,-10 14,-30 34,-30 34,-10 14,-10"/>
<text text-anchor="start" x="37.629" y="-15.4" font-family="sans-serif" font-size="14.00"> &#160;Declarations</text>
<polygon fill="#8dd3c7" stroke="none" points="127,-10 127,-30 147,-30 147,-10 127,-10"/>
<text text-anchor="start" x="150.725" y="-15.4" font-family="sans-serif" font-size="14.00"> &#160;Module</text>
<polygon fill="#80b1d3" stroke="none" points="213,-10 213,-30 233,-30 233,-10 213,-10"/>
<text text-anchor="start" x="236.781" y="-15.4" font-family="sans-serif" font-size="14.00"> &#160;Bootstrap</text>
<polygon fill="#fdb462" stroke="none" points="310,-10 310,-30 330,-30 330,-10 310,-10"/>
<text text-anchor="start" x="333.673" y="-15.4" font-family="sans-serif" font-size="14.00"> &#160;Providers</text>
<polygon fill="#fb8072" stroke="none" points="406,-10 406,-30 426,-30 426,-10 406,-10"/>
<text text-anchor="start" x="429.726" y="-15.4" font-family="sans-serif" font-size="14.00"> &#160;Exports</text>
<g id="clust1" class="cluster"><title>cluster_WebBluetoothModule</title>
<polygon fill="none" stroke="black" stroke-dasharray="1,5" points="169,-70 169,-195 327,-195 327,-70 169,-70"/>
</g>
<g id="clust3" class="cluster"><title>cluster_WebBluetoothModule_imports</title>
<polygon fill="none" stroke="black" points="184,-78 184,-130 312,-130 312,-78 184,-78"/>
</g>
<!-- CommonModule -->
<g id="node1" class="node"><title>CommonModule</title>
<polygon fill="#8dd3c7" stroke="black" points="303.668,-122 300.668,-126 279.668,-126 276.668,-122 192.332,-122 192.332,-86 303.668,-86 303.668,-122"/>
<text text-anchor="middle" x="248" y="-99.8" font-family="Times,serif" font-size="14.00">CommonModule</text>
</g>
<!-- WebBluetoothModule -->
<g id="node2" class="node"><title>WebBluetoothModule</title>
<polygon fill="#8dd3c7" stroke="black" points="318.702,-187 315.702,-191 294.702,-191 291.702,-187 177.298,-187 177.298,-151 318.702,-151 318.702,-187"/>
<text text-anchor="middle" x="248" y="-164.8" font-family="Times,serif" font-size="14.00">WebBluetoothModule</text>
</g>
<!-- CommonModule&#45;&gt;WebBluetoothModule -->
<g id="edge1" class="edge"><title>CommonModule&#45;&gt;WebBluetoothModule</title>
<path fill="none" stroke="black" d="M248,-122.106C248,-122.106 248,-140.991 248,-140.991"/>
<polygon fill="black" stroke="black" points="244.5,-140.991 248,-150.991 251.5,-140.991 244.5,-140.991"/>
</g>
</g>
</svg>
